<svg width="41" height="39" viewBox="0 0 41 39" fill="none" xmlns="http://www.w3.org/2000/svg">
<path d="M0 3C0 1.34315 1.34315 0 3 0H38C39.6569 0 41 1.34315 41 3C41 4.65685 39.6569 6 38 6H3C1.34315 6 0 4.65685 0 3Z" fill="#D9D9D9"/>
<path d="M0 14C0 12.3431 1.34315 11 3 11H38C39.6569 11 41 12.3431 41 14C41 15.6569 39.6569 17 38 17H3C1.34315 17 0 15.6569 0 14Z" fill="#D9D9D9"/>
<path d="M0 25C0 23.3431 1.34315 22 3 22H38C39.6569 22 41 23.3431 41 25C41 26.6569 39.6569 28 38 28H3C1.34315 28 0 26.6569 0 25Z" fill="#D9D9D9"/>
<path d="M0 36C0 34.3431 1.34315 33 3 33H38C39.6569 33 41 34.3431 41 36C41 37.6569 39.6569 39 38 39H3C1.34315 39 0 37.6569 0 36Z" fill="#D9D9D9"/>
</svg>
