<svg width="317" height="63" viewBox="0 0 317 63" fill="none" xmlns="http://www.w3.org/2000/svg">
<path d="M0.906006 24.742H8.00401L15.69 41.416H15.27L22.956 24.742H29.802V52H24.804V30.454H25.56L17.076 49.018H13.842L5.40001 30.538H5.86201V52H0.906006V24.742Z" fill="white"/>
<path d="M34.507 31.63H40.135L45.553 47.674H44.671L49.333 31.63H54.373L46.561 55.696C45.763 58.104 44.776 59.847 43.6 60.925C42.438 62.003 41.017 62.542 39.337 62.542C38.371 62.542 37.426 62.43 36.502 62.206C35.592 61.996 34.661 61.66 33.709 61.198V56.83C34.479 57.306 35.221 57.656 35.935 57.88C36.663 58.104 37.391 58.216 38.119 58.216C38.777 58.216 39.351 58.034 39.841 57.67C40.345 57.32 40.779 56.823 41.143 56.179C41.507 55.549 41.815 54.814 42.067 53.974L42.697 52L34.507 31.63Z" fill="white"/>
<path d="M58.7791 24.742H67.5991C70.3711 24.742 72.8001 25.302 74.8861 26.422C76.9721 27.528 78.5961 29.103 79.7581 31.147C80.9201 33.191 81.5011 35.606 81.5011 38.392C81.5011 41.15 80.9201 43.551 79.7581 45.595C78.5961 47.625 76.9721 49.2 74.8861 50.32C72.8001 51.44 70.3711 52 67.5991 52H58.7791V24.742ZM63.7351 29.236V47.548H67.5991C69.3631 47.548 70.8821 47.149 72.1561 46.351C73.4441 45.553 74.431 44.468 75.1171 43.096C75.8171 41.71 76.1671 40.142 76.1671 38.392C76.1671 36.614 75.8171 35.039 75.1171 33.667C74.431 32.295 73.4441 31.217 72.1561 30.433C70.8821 29.635 69.3631 29.236 67.5991 29.236H63.7351Z" fill="white"/>
<path d="M87.613 52V31.546H92.569V52H87.613ZM91.351 43.054C91.351 40.38 91.652 38.168 92.254 36.418C92.856 34.668 93.661 33.373 94.669 32.533C95.691 31.679 96.825 31.252 98.071 31.252C98.407 31.252 98.722 31.273 99.016 31.315C99.324 31.357 99.625 31.42 99.919 31.504L99.835 36.46C99.471 36.376 99.079 36.306 98.659 36.25C98.239 36.194 97.861 36.166 97.525 36.166C96.433 36.166 95.516 36.432 94.774 36.964C94.046 37.482 93.493 38.252 93.115 39.274C92.751 40.296 92.569 41.556 92.569 43.054H91.351Z" fill="white"/>
<path d="M106.999 27.892C106.033 27.892 105.277 27.64 104.731 27.136C104.199 26.618 103.933 25.904 103.933 24.994C103.933 24.112 104.199 23.412 104.731 22.894C105.277 22.362 106.033 22.096 106.999 22.096C107.951 22.096 108.7 22.362 109.246 22.894C109.792 23.412 110.065 24.112 110.065 24.994C110.065 25.904 109.792 26.618 109.246 27.136C108.7 27.64 107.951 27.892 106.999 27.892ZM104.521 52V31.546H109.477V52H104.521Z" fill="white"/>
<path d="M114.481 31.63H120.193L125.065 47.758H124.687L129.559 31.63H135.271L127.669 52H122.083L114.481 31.63Z" fill="white"/>
<path d="M147.264 52.588C145.528 52.588 143.939 52.14 142.497 51.244C141.055 50.348 139.9 49.095 139.032 47.485C138.164 45.861 137.73 43.964 137.73 41.794C137.73 39.554 138.157 37.629 139.011 36.019C139.879 34.409 141.034 33.177 142.476 32.323C143.918 31.469 145.514 31.042 147.264 31.042C148.888 31.042 150.288 31.371 151.464 32.029C152.654 32.673 153.606 33.555 154.32 34.675C155.048 35.781 155.538 37.034 155.79 38.434C156.042 39.834 156.056 41.276 155.832 42.76H141.678V40.072H152.325L151.359 40.702C151.401 40.044 151.366 39.379 151.254 38.707C151.156 38.035 150.96 37.419 150.666 36.859C150.372 36.299 149.952 35.851 149.406 35.515C148.874 35.165 148.188 34.99 147.348 34.99C146.34 34.99 145.486 35.242 144.786 35.746C144.086 36.25 143.554 36.936 143.19 37.804C142.826 38.672 142.644 39.652 142.644 40.744V42.718C142.644 43.866 142.812 44.881 143.148 45.763C143.498 46.645 144.009 47.338 144.681 47.842C145.367 48.346 146.228 48.598 147.264 48.598C148.23 48.598 149.042 48.374 149.7 47.926C150.358 47.478 150.778 46.806 150.96 45.91H155.958C155.748 47.226 155.251 48.388 154.467 49.396C153.697 50.39 152.696 51.174 151.464 51.748C150.232 52.308 148.832 52.588 147.264 52.588Z" fill="white"/>
<path d="M161.933 52V31.546H166.889V52H161.933ZM165.671 43.054C165.671 40.38 165.972 38.168 166.574 36.418C167.176 34.668 167.981 33.373 168.989 32.533C170.011 31.679 171.145 31.252 172.391 31.252C172.727 31.252 173.042 31.273 173.336 31.315C173.644 31.357 173.945 31.42 174.239 31.504L174.155 36.46C173.791 36.376 173.399 36.306 172.979 36.25C172.559 36.194 172.181 36.166 171.845 36.166C170.753 36.166 169.836 36.432 169.094 36.964C168.366 37.482 167.813 38.252 167.435 39.274C167.071 40.296 166.889 41.556 166.889 43.054H165.671Z" fill="white"/>
<path d="M175.44 52L184.722 24.742H190.938L199.842 52H194.634L192.744 46.12H182.622L180.69 52H175.44ZM183.882 42.382H191.568L187.746 30.664L183.882 42.382Z" fill="white"/>
<path d="M214.919 52.588C213.421 52.588 212.147 52.266 211.097 51.622C210.047 50.978 209.242 50.005 208.682 48.703C208.136 47.387 207.863 45.742 207.863 43.768H209.669C209.669 44.678 209.879 45.455 210.299 46.099C210.719 46.743 211.272 47.24 211.958 47.59C212.658 47.926 213.407 48.094 214.205 48.094C215.031 48.094 215.843 47.87 216.641 47.422C217.453 46.96 218.125 46.267 218.657 45.343C219.189 44.405 219.455 43.222 219.455 41.794C219.455 40.492 219.231 39.372 218.783 38.434C218.335 37.482 217.719 36.754 216.935 36.25C216.165 35.746 215.283 35.494 214.289 35.494C213.449 35.494 212.679 35.683 211.979 36.061C211.279 36.439 210.719 36.992 210.299 37.72C209.879 38.434 209.669 39.302 209.669 40.324H207.863C207.863 38.182 208.192 36.432 208.85 35.074C209.508 33.702 210.39 32.687 211.496 32.029C212.602 31.371 213.813 31.042 215.129 31.042C216.739 31.042 218.251 31.469 219.665 32.323C221.093 33.177 222.248 34.409 223.13 36.019C224.012 37.615 224.453 39.54 224.453 41.794C224.453 44.062 224.005 46.001 223.109 47.611C222.213 49.221 221.037 50.453 219.581 51.307C218.139 52.161 216.585 52.588 214.919 52.588ZM204.713 61.954V31.63H208.787L209.669 36.67V61.954H204.713Z" fill="white"/>
<path d="M240.553 52.588C239.055 52.588 237.781 52.266 236.731 51.622C235.681 50.978 234.876 50.005 234.316 48.703C233.77 47.387 233.497 45.742 233.497 43.768H235.303C235.303 44.678 235.513 45.455 235.933 46.099C236.353 46.743 236.906 47.24 237.592 47.59C238.292 47.926 239.041 48.094 239.839 48.094C240.665 48.094 241.477 47.87 242.275 47.422C243.087 46.96 243.759 46.267 244.291 45.343C244.823 44.405 245.089 43.222 245.089 41.794C245.089 40.492 244.865 39.372 244.417 38.434C243.969 37.482 243.353 36.754 242.569 36.25C241.799 35.746 240.917 35.494 239.923 35.494C239.083 35.494 238.313 35.683 237.613 36.061C236.913 36.439 236.353 36.992 235.933 37.72C235.513 38.434 235.303 39.302 235.303 40.324H233.497C233.497 38.182 233.826 36.432 234.484 35.074C235.142 33.702 236.024 32.687 237.13 32.029C238.236 31.371 239.447 31.042 240.763 31.042C242.373 31.042 243.885 31.469 245.299 32.323C246.727 33.177 247.882 34.409 248.764 36.019C249.646 37.615 250.087 39.54 250.087 41.794C250.087 44.062 249.639 46.001 248.743 47.611C247.847 49.221 246.671 50.453 245.215 51.307C243.773 52.161 242.219 52.588 240.553 52.588ZM230.347 61.954V31.63H234.421L235.303 36.67V61.954H230.347Z" fill="white"/>
<path d="M288 0C272.009 0 259 13.0099 259 29C259 29.3033 259.004 29.6038 259.014 29.9043C259.108 32.9479 259.673 35.8757 260.638 38.6161C264.613 49.896 275.377 58 288 58C300.625 58 311.392 49.8905 315.364 38.6065C316.329 35.8661 316.894 32.9396 316.986 29.896C316.996 29.5983 317 29.3005 317 29C317 13.0099 303.99 0 288 0ZM270.57 35.6648C271.078 35.5098 271.59 35.3591 272.111 35.2178C275.157 34.3925 278.36 33.8191 281.683 33.5001L282.49 46.8276C277.015 45.1317 272.609 40.981 270.57 35.6648ZM288.223 33.4938C286.054 33.4938 284.295 31.7349 284.295 29.5652C284.295 27.3955 286.054 25.6366 288.223 25.6366C290.393 25.6366 292.152 27.3955 292.152 29.5652C292.152 31.7349 290.393 33.4938 288.223 33.4938ZM293.53 46.8215L294.336 33.5005C297.652 33.8192 300.849 34.3911 303.89 35.2142C304.412 35.3551 304.924 35.5056 305.432 35.6604C303.396 40.9729 298.997 45.1215 293.53 46.8215ZM304.901 26.1771C299.555 24.8598 293.872 24.1919 288.009 24.1919C282.135 24.1919 276.445 24.8616 271.098 26.1822C270.558 26.3153 270.025 26.4572 269.495 26.6031C269.508 26.5039 269.518 26.4041 269.533 26.3053C270.842 17.2872 278.625 10.3384 288 10.3384C297.374 10.3384 305.155 17.2845 306.466 26.2996C306.48 26.3983 306.491 26.4982 306.504 26.5975C305.974 26.4516 305.441 26.3099 304.901 26.1771Z" fill="white"/>
</svg>
